<svg width="80" height="80" viewBox="0 0 80 80" fill="none" xmlns="http://www.w3.org/2000/svg">
<path d="M16.6667 70C14.8333 70 13.2644 69.3478 11.96 68.0433C10.6556 66.7389 10.0022 65.1689 10 63.3333V13.3333C10 12.3889 10.32 11.5978 10.96 10.96C11.6 10.3222 12.3911 10.0022 13.3333 10C14.2756 9.99779 15.0678 10.3178 15.71 10.96C16.3522 11.6022 16.6711 12.3933 16.6667 13.3333V63.3333H66.6667C67.6111 63.3333 68.4033 63.6533 69.0433 64.2933C69.6833 64.9333 70.0022 65.7245 70 66.6667C69.9978 67.6089 69.6778 68.4011 69.04 69.0433C68.4022 69.6856 67.6111 70.0045 66.6667 70H16.6667ZM23.3333 60C22.3889 60 21.5978 59.68 20.96 59.04C20.3222 58.4 20.0022 57.6089 20 56.6667V33.3333C20 32.3889 20.32 31.5978 20.96 30.96C21.6 30.3222 22.3911 30.0022 23.3333 30H30C30.9444 30 31.7367 30.32 32.3767 30.96C33.0167 31.6 33.3356 32.3911 33.3333 33.3333V56.6667C33.3333 57.6111 33.0133 58.4033 32.3733 59.0433C31.7333 59.6833 30.9422 60.0022 30 60H23.3333ZM40 60C39.0556 60 38.2644 59.68 37.6267 59.04C36.9889 58.4 36.6689 57.6089 36.6667 56.6667V16.6667C36.6667 15.7222 36.9867 14.9311 37.6267 14.2933C38.2667 13.6556 39.0578 13.3356 40 13.3333H46.6667C47.6111 13.3333 48.4033 13.6533 49.0433 14.2933C49.6833 14.9333 50.0022 15.7245 50 16.6667V56.6667C50 57.6111 49.68 58.4033 49.04 59.0433C48.4 59.6833 47.6089 60.0022 46.6667 60H40ZM56.6667 60C55.7222 60 54.9311 59.68 54.2933 59.04C53.6556 58.4 53.3356 57.6089 53.3333 56.6667V46.6667C53.3333 45.7222 53.6533 44.9311 54.2933 44.2933C54.9333 43.6556 55.7244 43.3356 56.6667 43.3333H63.3333C64.2778 43.3333 65.07 43.6533 65.71 44.2933C66.35 44.9333 66.6689 45.7245 66.6667 46.6667V56.6667C66.6667 57.6111 66.3467 58.4033 65.7067 59.0433C65.0667 59.6833 64.2756 60.0022 63.3333 60H56.6667Z" fill="#509AAF"/>
</svg>
