<svg width="80" height="80" viewBox="0 0 80 80" fill="none" xmlns="http://www.w3.org/2000/svg">
<mask id="path-1-inside-1_964_810" fill="white">
<path d="M40.0001 18.5805L38.1734 20.2871C38.4073 20.5374 38.6901 20.737 39.0044 20.8734C39.3186 21.0099 39.6575 21.0803 40.0001 21.0803C40.3427 21.0803 40.6816 21.0099 40.9958 20.8734C41.31 20.737 41.5929 20.5374 41.8268 20.2871L40.0001 18.5805ZM31.4467 62.6538C26.6134 58.7338 20.9734 53.5905 16.5601 47.9605C12.0967 42.2705 9.16675 36.4271 9.16675 31.0605H4.16675C4.16675 38.1171 7.93341 45.0671 12.6234 51.0471C17.3634 57.0905 23.3234 62.5005 28.2968 66.5371L31.4467 62.6538ZM9.16675 31.0605C9.16675 21.3771 13.3934 15.3938 18.6201 13.3438C23.8367 11.3005 31.1334 12.7605 38.1734 20.2871L41.8268 16.8738C33.8668 8.36047 24.4967 5.6738 16.7967 8.68713C9.10675 11.7005 4.16675 19.9738 4.16675 31.0605H9.16675ZM51.7001 66.5338C56.6768 62.4971 62.6367 57.0871 67.3767 51.0438C72.0667 45.0638 75.8334 38.1138 75.8334 31.0538H70.8334C70.8334 36.4271 67.9001 42.2671 63.4401 47.9571C59.0267 53.5871 53.3867 58.7305 48.5534 62.6505L51.7001 66.5338ZM75.8334 31.0538C75.8334 19.9705 70.8934 11.6971 63.2001 8.68713C55.5001 5.67047 46.1334 8.3538 38.1734 16.8705L41.8268 20.2871C48.8668 12.7605 56.1634 11.2971 61.3801 13.3405C66.6068 15.3871 70.8334 21.3738 70.8334 31.0538H75.8334ZM28.2968 66.5371C32.5301 69.9771 35.4734 72.5005 40.0001 72.5005V67.5005C37.5901 67.5005 36.0901 66.4205 31.4467 62.6538L28.2968 66.5371ZM48.5534 62.6505C43.9101 66.4171 42.4101 67.5005 40.0001 67.5005V72.5005C44.5267 72.5005 47.4701 69.9771 51.7034 66.5371L48.5534 62.6505Z"/>
</mask>
<path d="M40.0001 18.5805L38.1734 20.2871C38.4073 20.5374 38.6901 20.737 39.0044 20.8734C39.3186 21.0099 39.6575 21.0803 40.0001 21.0803C40.3427 21.0803 40.6816 21.0099 40.9958 20.8734C41.31 20.737 41.5929 20.5374 41.8268 20.2871L40.0001 18.5805ZM31.4467 62.6538C26.6134 58.7338 20.9734 53.5905 16.5601 47.9605C12.0967 42.2705 9.16675 36.4271 9.16675 31.0605H4.16675C4.16675 38.1171 7.93341 45.0671 12.6234 51.0471C17.3634 57.0905 23.3234 62.5005 28.2968 66.5371L31.4467 62.6538ZM9.16675 31.0605C9.16675 21.3771 13.3934 15.3938 18.6201 13.3438C23.8367 11.3005 31.1334 12.7605 38.1734 20.2871L41.8268 16.8738C33.8668 8.36047 24.4967 5.6738 16.7967 8.68713C9.10675 11.7005 4.16675 19.9738 4.16675 31.0605H9.16675ZM51.7001 66.5338C56.6768 62.4971 62.6367 57.0871 67.3767 51.0438C72.0667 45.0638 75.8334 38.1138 75.8334 31.0538H70.8334C70.8334 36.4271 67.9001 42.2671 63.4401 47.9571C59.0267 53.5871 53.3867 58.7305 48.5534 62.6505L51.7001 66.5338ZM75.8334 31.0538C75.8334 19.9705 70.8934 11.6971 63.2001 8.68713C55.5001 5.67047 46.1334 8.3538 38.1734 16.8705L41.8268 20.2871C48.8668 12.7605 56.1634 11.2971 61.3801 13.3405C66.6068 15.3871 70.8334 21.3738 70.8334 31.0538H75.8334ZM28.2968 66.5371C32.5301 69.9771 35.4734 72.5005 40.0001 72.5005V67.5005C37.5901 67.5005 36.0901 66.4205 31.4467 62.6538L28.2968 66.5371ZM48.5534 62.6505C43.9101 66.4171 42.4101 67.5005 40.0001 67.5005V72.5005C44.5267 72.5005 47.4701 69.9771 51.7034 66.5371L48.5534 62.6505Z" fill="#509AAF"/>
<path d="M28.2968 66.5371L21.3071 60.8675L35.281 72.2134L28.2968 66.5371ZM29.8734 64.5971L22.8891 58.9209L21.3125 60.8609L28.2968 66.5371L35.281 72.2134L36.8577 70.2734L29.8734 64.5971ZM50.1268 64.5971L43.1425 70.2734L44.7191 72.2134L51.7034 66.5371L58.6877 60.8609L57.111 58.9209L50.1268 64.5971ZM40.0001 70.0005H49.0001V67.5005H40.0001H31.0001V70.0005H40.0001ZM9.16675 31.0605V22.0605H4.16675V31.0605V40.0605H9.16675V31.0605ZM28.2968 66.5371L35.2864 72.2068L38.4364 68.3235L31.4467 62.6538L24.4571 56.9841L21.3071 60.8675L28.2968 66.5371ZM75.8334 31.0538V22.0538H70.8334V31.0538V40.0538H75.8334V31.0538ZM40.0001 72.5005H49.0001V67.5005H40.0001H31.0001V72.5005H40.0001ZM28.2968 66.5371L39.6482 52.5677L39.6404 52.5614L28.2968 66.5371ZM40.0001 18.5805L52.2886 5.42786L40.0001 -6.05343L27.7115 5.42786L40.0001 18.5805ZM51.7034 66.5371L63.0549 80.5065L77.0063 69.1696L65.6874 55.2036L51.7034 66.5371ZM31.4467 62.6538L42.7865 48.6748L42.7851 48.6737L31.4467 62.6538ZM16.5601 47.9605L30.7263 36.8556L30.7227 36.851L16.5601 47.9605ZM12.6234 51.0471L-1.54017 62.1554L-1.5398 62.1558L12.6234 51.0471ZM18.6201 13.3438L12.0552 -3.41636L12.0476 -3.41336L18.6201 13.3438ZM41.8268 16.8738L54.1153 30.0264L67.2728 17.7333L54.9748 4.58034L41.8268 16.8738ZM16.7967 8.68713L10.237 -8.07502L10.2296 -8.07213L16.7967 8.68713ZM51.7001 66.5338L37.715 77.8659L49.0527 91.8579L63.0391 80.5133L51.7001 66.5338ZM67.3767 51.0438L81.54 62.1525L81.5403 62.152L67.3767 51.0438ZM63.4401 47.9571L77.6063 59.062L77.6068 59.0614L63.4401 47.9571ZM48.5534 62.6505L37.2151 48.6704L37.2137 48.6715L48.5534 62.6505ZM63.2001 8.68713L56.6341 25.4468L56.6417 25.4498L63.2001 8.68713ZM38.1734 16.8705L25.023 4.57957L12.7359 17.7259L25.8784 30.0171L38.1734 16.8705ZM61.3801 13.3405L54.8152 30.1006L54.8169 30.1013L61.3801 13.3405ZM40.0001 18.5805L27.7115 5.42786L25.8849 7.13452L38.1734 20.2871L50.462 33.4397L52.2886 31.7331L40.0001 18.5805ZM38.1734 20.2871L25.0214 32.5764C26.9393 34.6289 29.2585 36.2653 31.8352 37.3841L39.0044 20.8734L46.1735 4.36276C48.1217 5.20869 49.8753 6.446 51.3254 7.99791L38.1734 20.2871ZM39.0044 20.8734L31.8352 37.3841C34.4118 38.503 37.191 39.0803 40.0001 39.0803V21.0803V3.0803C42.1241 3.0803 44.2253 3.51682 46.1735 4.36276L39.0044 20.8734ZM40.0001 21.0803V39.0803C42.8092 39.0803 45.5883 38.503 48.165 37.3841L40.9958 20.8734L33.8266 4.36276C35.7748 3.51682 37.8761 3.0803 40.0001 3.0803V21.0803ZM40.9958 20.8734L48.165 37.3841C50.7416 36.2653 53.0609 34.6289 54.9788 32.5764L41.8268 20.2871L28.6748 7.99791C30.1249 6.446 31.8784 5.20869 33.8266 4.36276L40.9958 20.8734ZM41.8268 20.2871L54.1153 7.13452L52.2886 5.42786L40.0001 18.5805L27.7115 31.7331L29.5382 33.4397L41.8268 20.2871ZM31.4467 62.6538L42.7851 48.6737C38.4693 45.1735 33.972 40.9961 30.7263 36.8556L16.5601 47.9605L2.39385 59.0653C7.97479 66.1848 14.7575 72.2941 20.1084 76.6339L31.4467 62.6538ZM16.5601 47.9605L30.7227 36.851C29.1109 34.7963 28.1218 33.1426 27.5802 31.9494C27.0294 30.736 27.1667 30.5002 27.1667 31.0605H9.16675H-8.83325C-8.83325 42.5051 -2.89048 52.3287 2.39743 59.0699L16.5601 47.9605ZM4.16675 31.0605H-13.8333C-13.8333 44.1934 -7.05557 55.1229 -1.54017 62.1554L12.6234 51.0471L26.787 39.9389C22.9224 35.0113 22.1667 32.0409 22.1667 31.0605H4.16675ZM12.6234 51.0471L-1.5398 62.1558C4.36796 69.688 11.4702 76.0626 16.9531 80.5129L28.2968 66.5371L39.6404 52.5614C35.1767 48.9383 30.3589 44.4929 26.7866 39.9384L12.6234 51.0471ZM9.16675 31.0605H27.1667C27.1667 28.81 27.6535 28.1115 27.5228 28.3381C27.4597 28.4474 27.265 28.7427 26.863 29.0983C26.4599 29.4548 25.9024 29.8225 25.1926 30.101L18.6201 13.3438L12.0476 -3.41336C-1.98741 2.09144 -8.83325 16.2694 -8.83325 31.0605H9.16675ZM18.6201 13.3438L25.1849 30.104C24.4701 30.3839 23.8088 30.4925 23.2732 30.5041C22.7387 30.5156 22.4153 30.4296 22.3366 30.405C22.1783 30.3555 23.2033 30.6326 25.0276 32.583L38.1734 20.2871L51.3192 7.99131C40.9326 -3.11334 26.1808 -8.94926 12.0552 -3.41636L18.6201 13.3438ZM38.1734 20.2871L50.462 33.4397L54.1153 30.0264L41.8268 16.8738L29.5382 3.72119L25.8849 7.13452L38.1734 20.2871ZM41.8268 16.8738L54.9748 4.58034C43.7266 -7.44976 26.9074 -14.5989 10.237 -8.07502L16.7967 8.68713L23.3565 25.4493C23.0312 25.5766 23.0456 25.3859 23.7893 25.621C24.6378 25.8892 26.421 26.7526 28.6787 29.1673L41.8268 16.8738ZM16.7967 8.68713L10.2296 -8.07213C-6.34611 -1.57691 -13.8333 14.9639 -13.8333 31.0605H4.16675H22.1667C22.1667 28.1399 22.8188 26.4877 23.2137 25.7989C23.5605 25.194 23.6766 25.3238 23.3639 25.4464L16.7967 8.68713ZM51.7001 66.5338L63.0391 80.5133C68.5292 76.0602 75.6319 69.6851 81.54 62.1525L67.3767 51.0438L53.2135 39.9351C49.6416 44.4892 44.8243 48.934 40.3611 52.5543L51.7001 66.5338ZM67.3767 51.0438L81.5403 62.152C87.0566 55.1184 93.8334 44.1892 93.8334 31.0538H75.8334H57.8334C57.8334 32.0384 57.0768 35.0092 53.2132 39.9356L67.3767 51.0438ZM70.8334 31.0538H52.8334C52.8334 30.4959 52.9704 30.7319 52.4196 31.945C51.8775 33.1389 50.8875 34.7936 49.2734 36.8528L63.4401 47.9571L77.6068 59.0614C82.8836 52.3294 88.8334 42.5082 88.8334 31.0538H70.8334ZM63.4401 47.9571L49.2738 36.8523C46.0281 40.9928 41.5309 45.1702 37.2151 48.6704L48.5534 62.6505L59.8917 76.6305C65.2426 72.2908 72.0254 66.1815 77.6063 59.062L63.4401 47.9571ZM48.5534 62.6505L34.5683 73.9826L37.715 77.8659L51.7001 66.5338L65.6852 55.2017L62.5385 51.3183L48.5534 62.6505ZM75.8334 31.0538H93.8334C93.8334 14.9603 86.345 -1.58611 69.7584 -8.07556L63.2001 8.68713L56.6417 25.4498C56.3275 25.3269 56.4419 25.1956 56.7876 25.7983C57.1816 26.4853 57.8334 28.1355 57.8334 31.0538H75.8334ZM63.2001 8.68713L69.7661 -8.07256C53.0938 -14.6044 36.2734 -7.45766 25.023 4.57957L38.1734 16.8705L51.3238 29.1614C53.5818 26.7455 55.3629 25.8842 56.2072 25.6175C56.9457 25.3841 56.9579 25.5737 56.6341 25.4468L63.2001 8.68713ZM38.1734 16.8705L25.8784 30.0171L29.5318 33.4338L41.8268 20.2871L54.1217 7.14051L50.4684 3.72384L38.1734 16.8705ZM41.8268 20.2871L54.9726 32.583C56.798 30.6314 57.8244 30.353 57.6674 30.4022C57.5893 30.4266 57.2658 30.5127 56.7306 30.5013C56.1943 30.4899 55.5317 30.3812 54.8152 30.1006L61.3801 13.3405L67.9449 -3.41969C53.814 -8.95469 39.0626 -3.10799 28.6809 7.99131L41.8268 20.2871ZM61.3801 13.3405L54.8169 30.1013C54.1029 29.8217 53.5428 29.4522 53.1386 29.0947C52.7354 28.7382 52.5404 28.4423 52.4774 28.3331C52.3469 28.107 52.8334 28.8057 52.8334 31.0538H70.8334H88.8334C88.8334 16.2717 81.9907 2.08036 67.9433 -3.42033L61.3801 13.3405ZM28.2968 66.5371L16.9453 80.5065C19.8323 82.8525 27.8904 90.5005 40.0001 90.5005V72.5005V54.5005C40.5984 54.5005 41.29 54.5922 41.9762 54.7957C42.6274 54.9889 43.0135 55.2059 43.0627 55.2344C43.0688 55.2379 42.8373 55.1023 42.2086 54.6215C41.9058 54.3899 41.5557 54.1133 41.1195 53.762C40.6659 53.3967 40.2241 53.0357 39.6482 52.5678L28.2968 66.5371ZM40.0001 67.5005V49.5005C40.8306 49.5005 42.0013 49.6046 43.3133 49.9851C44.5569 50.3458 45.3921 50.8008 45.7021 50.9835C45.9425 51.1252 45.8766 51.1109 45.2858 50.6625C44.7111 50.2263 43.9495 49.6183 42.7865 48.6748L31.4467 62.6538L20.107 76.6327C22.1126 78.2596 24.7667 80.4317 27.4197 81.9957C31.095 84.1624 35.1956 85.5005 40.0001 85.5005V67.5005ZM48.5534 62.6505L37.2137 48.6715C36.0495 49.6159 35.2871 50.2248 34.7109 50.6623C34.1187 51.112 34.0517 51.1273 34.2904 50.9864C34.5987 50.8045 35.4335 50.3488 36.6778 49.9872C37.9914 49.6056 39.1649 49.5005 40.0001 49.5005V67.5005V85.5005C44.8141 85.5005 48.9172 84.1561 52.5881 81.9895C55.2372 80.4261 57.8904 78.254 59.8931 76.6294L48.5534 62.6505ZM40.0001 72.5005V90.5005C52.1098 90.5005 60.1679 82.8525 63.0549 80.5065L51.7034 66.5371L40.3519 52.5678C39.776 53.0357 39.3342 53.3967 38.8806 53.762C38.4444 54.1133 38.0944 54.3899 37.7915 54.6215C37.1629 55.1023 36.9314 55.2379 36.9375 55.2344C36.9867 55.2059 37.3728 54.9889 38.0239 54.7957C38.7101 54.5922 39.4017 54.5005 40.0001 54.5005V72.5005ZM51.7034 66.5371L65.6874 55.2036L62.5374 51.317L48.5534 62.6505L34.5694 73.984L37.7194 77.8706L51.7034 66.5371Z" fill="#509AAF" mask="url(#path-1-inside-1_964_810)"/>
<path d="M61.6668 30.0007H55.0002M55.0002 30.0007H48.3335M55.0002 30.0007V23.334M55.0002 30.0007V36.6673" stroke="#509AAF" stroke-width="1.5" stroke-linecap="round"/>
</svg>
