<svg width="81" height="80" viewBox="0 0 81 80" fill="none" xmlns="http://www.w3.org/2000/svg">
<path d="M71.25 10.5004C70.3904 9.94436 69.4074 9.60794 68.3874 9.52075C67.3673 9.43357 66.3415 9.59829 65.4 10.0005L34.55 22.1504C33.8204 22.4502 33.0388 22.6031 32.25 22.6004H12.5C10.8424 22.6004 9.25268 23.2589 8.08058 24.431C6.90848 25.6031 6.25 27.1928 6.25 28.8504V29.3504H0V44.3504H6.25V45.0005C6.28917 46.6319 6.9649 48.1834 8.13278 49.3232C9.30067 50.4631 10.8681 51.1009 12.5 51.1005L20 67.0005C20.5079 68.0712 21.3074 68.9769 22.3068 69.6137C23.3062 70.2505 24.465 70.5925 25.65 70.6005H28.8C30.4489 70.5873 32.0258 69.923 33.1871 68.7523C34.3484 67.5816 35.0001 65.9994 35 64.3505V51.7005L65.4 63.8505C66.1487 64.1446 66.9456 64.2972 67.75 64.3004C68.9981 64.2775 70.2132 63.8956 71.25 63.2005C72.0724 62.6452 72.7507 61.9021 73.2289 61.0326C73.7071 60.1632 73.9715 59.1923 74 58.2005V15.6505C73.9954 14.633 73.7425 13.6321 73.2633 12.7346C72.784 11.8371 72.0929 11.0702 71.25 10.5004ZM28.75 28.8504V45.0005H12.5V28.8504H28.75ZM28.75 64.3505H25.6L19.45 51.1005H28.75V64.3505ZM36.85 45.7504C36.2562 45.4473 35.6372 45.1964 35 45.0005V28.5004C35.631 28.3693 36.2498 28.1853 36.85 27.9505L67.75 15.6505V58.0504L36.85 45.7504ZM74.15 30.6004V43.1004C75.8076 43.1004 77.3973 42.442 78.5694 41.2699C79.7415 40.0978 80.4 38.5081 80.4 36.8504C80.4 35.1928 79.7415 33.6031 78.5694 32.431C77.3973 31.2589 75.8076 30.6004 74.15 30.6004Z" fill="#509AAF"/>
</svg>
