<svg width="415" height="312" viewBox="0 0 415 312" fill="none" xmlns="http://www.w3.org/2000/svg" xmlns:xlink="http://www.w3.org/1999/xlink">
<rect x="-0.00268555" y="-73.6107" width="414.16" height="385.31" fill="url(#pattern0_1_12898)"/>
<defs>
<pattern id="pattern0_1_12898" patternUnits="userSpaceOnUse" patternTransform="matrix(58.464 0 0 58.464 -0.00268555 -73.6107)" preserveAspectRatio="none" viewBox="0 0 28.8 28.8" width="1" height="1">
<g id="pattern0_1_12898_inner">
<g opacity="0.8">
<path d="M4.82496 12.0249L8.69996 15.8999C8.8833 16.0832 8.97497 16.3166 8.97497 16.5999C8.97497 16.8832 8.8833 17.1166 8.69996 17.2999C8.51663 17.4832 8.2833 17.5749 7.99996 17.5749C7.71663 17.5749 7.4833 17.4832 7.29996 17.2999L2.69996 12.6999C2.59996 12.5999 2.52896 12.4916 2.48696 12.3749C2.44496 12.2582 2.42463 12.1332 2.42596 11.9999C2.4273 11.8666 2.4483 11.7416 2.48896 11.6249C2.52963 11.5082 2.6003 11.3999 2.70096 11.2999L7.30096 6.6999C7.50096 6.4999 7.73863 6.3999 8.01396 6.3999C8.2893 6.3999 8.52663 6.4999 8.72596 6.6999C8.9253 6.8999 9.0253 7.13757 9.02596 7.4129C9.02663 7.68824 8.92663 7.92557 8.72596 8.1249L4.82496 12.0249ZM19.175 11.9749L15.3 8.0999C15.1166 7.91657 15.025 7.68324 15.025 7.3999C15.025 7.11657 15.1166 6.88324 15.3 6.6999C15.4833 6.51657 15.7166 6.4249 16 6.4249C16.2833 6.4249 16.5166 6.51657 16.7 6.6999L21.3 11.2999C21.4 11.3999 21.471 11.5082 21.513 11.6249C21.555 11.7416 21.5756 11.8666 21.575 11.9999C21.5743 12.1332 21.5536 12.2582 21.513 12.3749C21.4723 12.4916 21.4013 12.5999 21.3 12.6999L16.7 17.2999C16.5 17.4999 16.2666 17.5959 16 17.5879C15.7333 17.5799 15.5 17.4756 15.3 17.2749C15.1 17.0742 15 16.8369 15 16.5629C15 16.2889 15.1 16.0512 15.3 15.8499L19.175 11.9749Z" fill="#AFECFD"/>
</g>
</g>
</pattern></defs>
</svg>
