<svg width="45" height="45" viewBox="0 0 45 45" fill="none" xmlns="http://www.w3.org/2000/svg">
<path d="M7.49999 26.25C7.14517 26.2512 6.79729 26.1517 6.49677 25.9631C6.19625 25.7745 5.95542 25.5044 5.80227 25.1844C5.64911 24.8643 5.58991 24.5074 5.63155 24.155C5.67318 23.8026 5.81395 23.4693 6.03749 23.1938L24.6 4.06875C24.7392 3.90803 24.929 3.79942 25.1381 3.76075C25.3472 3.72208 25.5632 3.75565 25.7507 3.85595C25.9382 3.95624 26.0861 4.11731 26.17 4.3127C26.2539 4.5081 26.2689 4.72622 26.2125 4.93125L22.6125 16.2187C22.5063 16.5029 22.4707 16.8085 22.5086 17.1094C22.5465 17.4103 22.6568 17.6975 22.8302 17.9464C23.0035 18.1953 23.2346 18.3985 23.5036 18.5384C23.7727 18.6784 24.0717 18.751 24.375 18.75H37.5C37.8548 18.7488 38.2027 18.8483 38.5032 19.0369C38.8037 19.2256 39.0445 19.4956 39.1977 19.8156C39.3509 20.1357 39.4101 20.4927 39.3684 20.845C39.3268 21.1974 39.186 21.5307 38.9625 21.8063L20.4 40.9312C20.2607 41.092 20.071 41.2006 19.8619 41.2392C19.6528 41.2779 19.4368 41.2444 19.2492 41.1441C19.0617 41.0438 18.9139 40.8827 18.83 40.6873C18.7461 40.4919 18.7311 40.2738 18.7875 40.0688L22.3875 28.7813C22.4936 28.4971 22.5293 28.1915 22.4914 27.8906C22.4535 27.5897 22.3431 27.3025 22.1698 27.0536C21.9965 26.8047 21.7654 26.6015 21.4963 26.4616C21.2273 26.3216 20.9283 26.249 20.625 26.25H7.49999Z" stroke="#509AAF" stroke-width="4" stroke-linecap="round" stroke-linejoin="round"/>
</svg>
