<svg width="40" height="40" viewBox="0 0 40 40" fill="none" xmlns="http://www.w3.org/2000/svg">
<rect width="40" height="40" rx="20" fill="#3F4C5C"/>
<path d="M15.7568 9.95703H24.1568C27.3568 9.95703 29.9568 12.5683 29.9568 15.7821V24.2185C29.9568 25.7634 29.3457 27.2451 28.258 28.3375C27.1703 29.4299 25.695 30.0436 24.1568 30.0436H15.7568C12.5568 30.0436 9.95679 27.4324 9.95679 24.2185V15.7821C9.95679 14.2372 10.5679 12.7556 11.6556 11.6632C12.7433 10.5707 14.2185 9.95703 15.7568 9.95703ZM15.5568 11.9657C14.602 11.9657 13.6863 12.3466 13.0112 13.0247C12.3361 13.7027 11.9568 14.6224 11.9568 15.5813V24.4194C11.9568 26.418 13.5668 28.035 15.5568 28.035H24.3568C25.3116 28.035 26.2272 27.654 26.9024 26.976C27.5775 26.2979 27.9568 25.3783 27.9568 24.4194V15.5813C27.9568 13.5827 26.3468 11.9657 24.3568 11.9657H15.5568ZM25.2068 13.4722C25.5383 13.4722 25.8563 13.6045 26.0907 13.8399C26.3251 14.0753 26.4568 14.3946 26.4568 14.7276C26.4568 15.0606 26.3251 15.3799 26.0907 15.6153C25.8563 15.8507 25.5383 15.983 25.2068 15.983C24.8753 15.983 24.5573 15.8507 24.3229 15.6153C24.0885 15.3799 23.9568 15.0606 23.9568 14.7276C23.9568 14.3946 24.0885 14.0753 24.3229 13.8399C24.5573 13.6045 24.8753 13.4722 25.2068 13.4722ZM19.9568 14.9787C21.2829 14.9787 22.5546 15.5077 23.4923 16.4495C24.43 17.3912 24.9568 18.6685 24.9568 20.0003C24.9568 21.3321 24.43 22.6094 23.4923 23.5512C22.5546 24.4929 21.2829 25.022 19.9568 25.022C18.6307 25.022 17.3589 24.4929 16.4213 23.5512C15.4836 22.6094 14.9568 21.3321 14.9568 20.0003C14.9568 18.6685 15.4836 17.3912 16.4213 16.4495C17.3589 15.5077 18.6307 14.9787 19.9568 14.9787ZM19.9568 16.9873C19.1611 16.9873 18.3981 17.3048 17.8355 17.8698C17.2729 18.4349 16.9568 19.2012 16.9568 20.0003C16.9568 20.7994 17.2729 21.5658 17.8355 22.1308C18.3981 22.6959 19.1611 23.0133 19.9568 23.0133C20.7524 23.0133 21.5155 22.6959 22.0781 22.1308C22.6407 21.5658 22.9568 20.7994 22.9568 20.0003C22.9568 19.2012 22.6407 18.4349 22.0781 17.8698C21.5155 17.3048 20.7524 16.9873 19.9568 16.9873Z" fill="white"/>
</svg>
