<svg width="45" height="45" viewBox="0 0 45 45" fill="none" xmlns="http://www.w3.org/2000/svg">
<path d="M33.75 7.5H11.25C9.17893 7.5 7.5 9.17893 7.5 11.25V33.75C7.5 35.8211 9.17893 37.5 11.25 37.5H33.75C35.8211 37.5 37.5 35.8211 37.5 33.75V11.25C37.5 9.17893 35.8211 7.5 33.75 7.5Z" stroke="#509AAF" stroke-width="4" stroke-linecap="round" stroke-linejoin="round"/>
<path d="M26.25 16.875H18.75C17.7145 16.875 16.875 17.7145 16.875 18.75V26.25C16.875 27.2855 17.7145 28.125 18.75 28.125H26.25C27.2855 28.125 28.125 27.2855 28.125 26.25V18.75C28.125 17.7145 27.2855 16.875 26.25 16.875Z" stroke="#509AAF" stroke-width="4" stroke-linecap="round" stroke-linejoin="round"/>
<path d="M28.125 3.75V7.5" stroke="#509AAF" stroke-width="4" stroke-linecap="round" stroke-linejoin="round"/>
<path d="M28.125 37.5V41.25" stroke="#509AAF" stroke-width="4" stroke-linecap="round" stroke-linejoin="round"/>
<path d="M3.75 28.125H7.5" stroke="#509AAF" stroke-width="4" stroke-linecap="round" stroke-linejoin="round"/>
<path d="M3.75 16.875H7.5" stroke="#509AAF" stroke-width="4" stroke-linecap="round" stroke-linejoin="round"/>
<path d="M37.5 28.125H41.25" stroke="#509AAF" stroke-width="4" stroke-linecap="round" stroke-linejoin="round"/>
<path d="M37.5 16.875H41.25" stroke="#509AAF" stroke-width="4" stroke-linecap="round" stroke-linejoin="round"/>
<path d="M16.875 3.75V7.5" stroke="#509AAF" stroke-width="4" stroke-linecap="round" stroke-linejoin="round"/>
<path d="M16.875 37.5V41.25" stroke="#509AAF" stroke-width="4" stroke-linecap="round" stroke-linejoin="round"/>
</svg>
